<svg enable-background="new 0 0 460 460" viewBox="0 0 460 460" xmlns="http://www.w3.org/2000/svg"><path d="m323.503 56.628v-46.628c0-5.522-4.478-10-10-10h-57.119c-3.864 0-7.382 2.227-9.037 5.718l-13.89 29.313c-1.167-.021-2.321-.031-3.457-.031-117.173 0-212.5 95.327-212.5 212.5 0 50.425 17.799 98.891 50.256 137.229l-28.899 60.989c-1.468 3.098-1.247 6.732.586 9.629s5.022 4.653 8.451 4.653h63.206c3.864 0 7.382-2.227 9.037-5.718l9.268-19.559c30.796 16.566 65.346 25.277 100.595 25.277 117.173 0 212.5-95.327 212.5-212.5 0-81.084-46.496-155.298-118.997-190.872zm-93.503 383.372c-35.299 0-69.815-9.636-99.814-27.865-1.581-.961-3.379-1.454-5.193-1.454-.962 0-1.929.139-2.87.421-2.713.813-4.954 2.738-6.167 5.297l-11.184 23.601h-41.075l24.939-52.632c1.729-3.65 1.094-7.981-1.611-10.98-31.937-35.404-49.525-81.177-49.525-128.888 0-106.145 86.355-192.5 192.5-192.5 2.959 0 6.06.075 9.217.225 4.029.193 7.78-2.061 9.508-5.707l13.986-29.518h40.792v42.966c0 3.926 2.297 7.487 5.872 9.108 68.721 31.146 113.125 100.005 113.125 175.426 0 106.145-86.355 192.5-192.5 192.5z"/><path d="m379.758 159.47c-14.726-25.856-35.838-47.638-61.055-62.99-3.088-1.878-6.947-1.944-10.1-.176-3.15 1.771-5.101 5.104-5.101 8.718v155.25l-37.121-38.056.002-78.823c0-4.677-3.242-8.729-7.806-9.756-4.562-1.026-9.229 1.247-11.231 5.474l-53.493 112.893c-1.468 3.099-1.247 6.732.586 9.629s5.022 4.653 8.451 4.653h53.49c5.522 0 10-4.477 10-10v-5.428l33.152 33.986-33.152 33.987v-5.427c0-5.522-4.478-10-10-10h-80.556c-3.864 0-7.382 2.227-9.037 5.718l-34.673 73.174c-2.129 4.492-.635 9.866 3.507 12.614 28.086 18.638 60.722 28.488 94.377 28.488 95.364 0 172.948-78.907 172.948-175.898.002-30.952-8.017-61.393-23.188-88.03zm-161.063 86.815 27.688-58.433-.002 58.433zm84.808 63.131v23.987h-23.398zm-73.503 93.982c-26.83 0-52.927-7.093-75.998-20.587l28.15-59.407h64.229v19.999c0 .019.003.036.003.055.002.357.022.715.062 1.07.009.075.025.149.035.225.038.278.084.556.146.831.025.112.057.221.085.331.062.238.13.475.209.708.037.109.077.216.117.323.089.233.186.464.293.692.045.095.088.189.136.283.119.234.25.464.388.689.049.08.094.161.146.239.151.232.317.458.489.68.05.064.095.132.147.194.198.241.41.474.634.7.033.033.062.069.095.103.011.011.021.023.032.034.257.25.524.481.8.699.221.174.45.338.685.493.121.08.246.15.37.225.133.08.266.161.404.234.129.069.261.133.392.196.141.068.283.134.428.195.128.055.256.106.386.155.157.059.317.112.478.164.122.039.243.078.366.112.177.049.356.089.537.129.112.024.223.052.335.072.202.037.407.063.614.087.094.012.187.028.281.036.285.026.574.04.865.041.013 0 .026.002.04.002h.002.002 57.119c5.522 0 10-4.478 10-10v-219.254c37.055 29.315 59.445 75.057 59.445 123.354.001 85.963-68.611 155.898-152.947 155.898z"/><path d="m230.69 76.244c-1.947-2.922-5.28-4.588-8.792-4.445-44.51 2.091-86.022 21.315-116.891 54.134-30.924 32.879-47.955 76.051-47.955 121.567 0 37.202 11.289 72.769 32.646 102.854 1.885 2.655 4.932 4.211 8.153 4.211.29 0 .582-.013.875-.038 3.537-.311 6.644-2.472 8.164-5.68l124.514-262.777c1.503-3.174 1.233-6.903-.714-9.826zm-134.081 247.592c-12.84-23.211-19.558-49.281-19.558-76.336 0-77.562 55.276-142.106 128.676-153.95z"/></svg>